<svg width="56" height="40" viewBox="0 0 56 40" fill="none" xmlns="http://www.w3.org/2000/svg">
<g id="sell-button_svgrepo.com" clip-path="url(#clip0_1547_17197)">
<g id="Group">
<path id="Vector" d="M28.3646 18.9629C26.5292 18.9629 25.1226 19.9956 24.5806 21.6068H31.9769C31.4861 19.9617 30.1748 18.9629 28.3646 18.9629Z" fill="#D9A92D"/>
<path id="Vector_2" d="M53.5383 7.04834H3.21845C1.86115 7.04834 0.756744 8.14309 0.756744 9.48869V32.4566C0.756744 33.802 1.86115 34.8968 3.21845 34.8968H53.5383C54.8954 34.8968 56 33.802 56 32.4566V9.48869C56 8.14309 54.8954 7.04834 53.5383 7.04834ZM20.5695 26.1039C20.4752 28.4458 18.4593 30.0169 15.5534 30.0169C13.6462 30.0169 11.888 29.3312 10.6025 28.0861C9.98581 27.4889 9.97457 26.5094 10.5773 25.8982C11.1795 25.2872 12.168 25.2759 12.7847 25.873C13.4934 26.5596 14.4509 26.9224 15.5534 26.9224C15.9895 26.9224 17.4144 26.8548 17.4496 25.9834C17.4661 25.5512 17.0058 25.2957 15.2114 24.7443C13.323 24.164 10.4689 23.2869 10.4689 20.1738C10.4689 17.5988 12.5753 15.8687 15.7106 15.8687C17.0929 15.8687 18.3977 16.2156 19.5899 16.8997C20.3359 17.3279 20.5907 18.2743 20.1584 19.0139C19.7263 19.7534 18.7713 20.0053 18.0251 19.5772C17.3049 19.1638 16.5477 18.9627 15.7106 18.9627C15.0732 18.9627 13.5911 19.0807 13.5911 20.1736C13.5911 20.8508 14.0667 21.1526 16.1362 21.7886C17.9458 22.3452 20.6806 23.1856 20.5695 26.1039ZM33.7505 24.7016H24.5779C25.1182 26.326 26.5263 27.3676 28.3646 27.3676C29.6942 27.3676 30.8565 26.9049 31.6375 26.0649C32.2217 25.4366 33.2094 25.3967 33.8434 25.9756C34.4774 26.5546 34.5178 27.5334 33.9337 28.1618C32.5546 29.645 30.5768 30.4618 28.3648 30.4618C24.2894 30.4618 21.216 27.3203 21.216 23.1544C21.216 19.0011 24.2894 15.8691 28.3648 15.8691C32.3901 15.8691 35.3118 18.933 35.3118 23.1544C35.3116 24.0089 34.6125 24.7016 33.7505 24.7016ZM39.4474 28.9145C39.4474 29.7689 38.7487 30.4616 37.8863 30.4616C37.024 30.4616 36.3253 29.7689 36.3253 28.9145V12.4117C36.3253 11.5573 37.024 10.8646 37.8863 10.8646C38.7487 10.8646 39.4474 11.5573 39.4474 12.4117V28.9145ZM46.1038 28.9145C46.1038 29.7689 45.4051 30.4616 44.5428 30.4616C43.6804 30.4616 42.9817 29.7689 42.9817 28.9145V12.4117C42.9817 11.5573 43.6804 10.8646 44.5428 10.8646C45.4051 10.8646 46.1038 11.5573 46.1038 12.4117V28.9145Z" fill="#D9A92D"/>
</g>
</g>
<defs>
<clipPath id="clip0_1547_17197">
<rect width="56" height="39" fill="white" transform="translate(0 0.5)"/>
</clipPath>
</defs>
</svg>
