<svg width="48" height="41" viewBox="0 0 48 41" fill="none" xmlns="http://www.w3.org/2000/svg">
<g id="control_svgrepo.com">
<path id="Vector" d="M22.713 11.9579C22.536 11.4006 22.9275 10.7856 23.589 10.6408C23.8845 10.5742 24.1725 10.5024 24.4575 10.4127C24.6255 10.3435 24.7845 10.2679 24.939 10.1808C25.149 10.0322 25.3455 9.87587 25.524 9.70034C25.7265 9.45819 25.899 9.20322 26.046 8.93288C26.0685 8.88163 26.0925 8.83166 26.1135 8.78041C26.223 8.51519 26.3835 8.29994 26.676 8.15387C26.862 8.06034 27.0765 8.01294 27.2925 8.01294C27.402 8.01294 27.5115 8.02575 27.618 8.05009C28.224 8.19103 28.6995 8.79962 28.473 9.33519C28.296 9.74903 28.1055 10.1629 27.8415 10.5383C27.5775 10.9137 27.2475 11.2571 26.865 11.5466C26.523 11.8093 26.154 12.0566 25.737 12.2295C25.2585 12.4307 24.768 12.5857 24.255 12.7023C23.598 12.8548 22.896 12.5229 22.713 11.9579ZM40.353 37.1357C40.209 37.6188 39.6465 37.9058 39.0855 37.8712C38.892 37.975 38.676 38.0518 38.433 38.0634C37.6815 38.1031 36.9255 38.0903 36.171 38.0813C35.7855 38.0736 35.397 38.0685 35.0145 38.0685C33.84 38.0711 32.664 38.0839 31.4865 38.1185C30.339 38.1531 29.19 38.2184 28.0395 38.2479C26.886 38.2748 25.7325 38.2735 24.5775 38.2709C22.0935 38.2633 19.6035 38.2389 17.118 38.2953C14.598 38.3504 12.072 38.4119 9.54748 38.4375C9.05098 38.4426 8.61748 38.1736 8.42098 37.8058C8.13898 37.6085 7.94848 37.319 7.93648 36.9846C7.89298 35.8724 7.83448 34.7616 7.80598 33.6495C7.79098 33.0691 7.79098 32.4899 7.76248 31.9134C7.73248 31.3189 7.68898 30.7257 7.64848 30.1312C7.57498 29.9953 7.52698 29.8531 7.52698 29.7096C7.52698 29.438 7.65448 29.1753 7.88098 28.9819C8.11948 28.7756 8.40298 28.7026 8.73298 28.6795C8.99098 28.6616 9.24898 28.6552 9.50698 28.6398C9.40648 28.1837 9.29098 27.7327 9.16198 27.2791C9.06748 26.9473 9.15598 26.6141 9.36448 26.3463L9.35998 26.3271C9.35998 25.7249 9.91948 25.3188 10.584 25.2803C12.7695 25.1509 14.9535 25.0843 17.142 25.0395C17.1525 25.0395 17.1615 25.0395 17.1705 25.0395C17.2485 25.0395 17.316 25.0664 17.3895 25.0805C17.5935 24.9549 17.829 24.8652 18.1035 24.8652C18.7755 24.8652 19.3965 25.3572 19.371 25.9492C19.353 26.4078 19.3275 26.8652 19.3095 27.3265C19.2975 27.6442 19.293 27.962 19.314 28.2798C20.5095 28.2657 21.7035 28.2503 22.8975 28.2413C22.8795 28.076 22.8945 27.9184 22.9545 27.7621C23.025 26.8332 22.9335 25.8941 22.926 24.9639C22.917 23.944 22.8765 22.9254 22.839 21.9055C22.8045 20.9126 22.7865 19.917 22.767 18.9241C22.746 18.0144 22.6575 17.1008 22.56 16.1924C22.221 16.1399 21.8865 16.0746 21.5565 15.9708C20.5995 15.6735 19.695 15.2879 18.912 14.728C18.045 14.1091 17.265 13.3929 16.686 12.5614C16.1265 11.7593 15.8775 10.8624 15.7905 9.94122C15.756 9.55813 15.768 9.18913 15.813 8.80731C15.8685 8.36912 15.9435 7.90916 16.1175 7.49019C16.3575 6.89825 16.683 6.32041 17.103 5.80663C17.5065 5.31591 17.952 4.82647 18.489 4.43441C19.0365 4.0385 19.6365 3.70409 20.289 3.444C20.97 3.17237 21.663 2.911 22.4025 2.77006C23.1285 2.62912 23.8965 2.56763 24.645 2.5625C25.056 2.5625 25.485 2.60478 25.8915 2.67141C26.2395 2.72522 26.5755 2.79825 26.9055 2.91228C27.645 3.16469 28.3905 3.43247 29.0685 3.79634C29.736 4.15253 30.411 4.54331 30.939 5.04941C31.455 5.54269 31.959 6.08466 32.2725 6.69581C32.4495 7.04303 32.6325 7.38897 32.736 7.75541C32.829 8.0975 32.898 8.44856 32.925 8.79962C33.021 10.1244 32.658 11.5466 31.8 12.6652C31.359 13.2366 30.831 13.7824 30.2175 14.2257C29.655 14.6319 29.073 15.0227 28.464 15.3737C27.453 15.9605 26.286 16.2053 25.0965 16.3372C25.2405 18.2322 25.2195 20.1323 25.2945 22.0311C25.335 23.074 25.3995 24.1131 25.44 25.1561C25.461 25.6468 25.509 26.1375 25.539 26.6295C25.554 26.855 25.5645 27.0805 25.5795 27.3047C25.6005 27.5994 25.62 27.9031 25.5585 28.1965C26.625 28.1785 27.6915 28.1555 28.758 28.1311C28.7565 28.1247 28.755 28.1196 28.7535 28.1132C28.719 27.8287 28.7355 27.5366 28.7355 27.2496C28.7355 26.9319 28.7355 26.6154 28.7415 26.2964C28.7535 25.6647 29.3535 25.1381 30.0975 25.1381C30.1575 25.1381 30.2115 25.1625 30.27 25.1689C30.333 25.1573 30.39 25.1356 30.456 25.1317C32.202 25.0343 33.9465 24.9857 35.694 24.9331C35.706 24.9331 35.7195 24.9331 35.7315 24.9331C35.8755 24.9331 36.012 24.9626 36.138 25.01C36.204 25.001 36.2595 24.9767 36.33 24.9767C36.9765 24.9767 37.6425 25.4661 37.5885 26.0504C37.545 26.5078 37.5 26.9601 37.47 27.4136C37.4535 27.6455 37.4445 27.8774 37.4475 28.1081C37.9065 28.1452 38.364 28.1798 38.8215 28.249C39.123 28.2964 39.4125 28.5155 39.561 28.7372C39.693 28.9306 39.726 29.1548 39.702 29.3778C39.711 29.3996 39.729 29.4162 39.735 29.438C39.9735 30.1875 40.1295 30.9332 40.2015 31.7084C40.254 32.2657 40.2855 32.8282 40.314 33.3855C40.3485 34.0069 40.401 34.6283 40.4325 35.2485C40.4655 35.8699 40.533 36.5284 40.353 37.1357ZM33.228 26.9742C32.6265 27.0113 32.0265 27.0498 31.425 27.0869C31.4175 27.3611 31.416 27.6366 31.437 27.9082C31.449 27.9646 31.4265 28.0209 31.428 28.0773C32.5995 28.0491 33.7725 28.003 34.944 28.0017C34.9455 27.7993 34.9545 27.5956 34.968 27.3931C34.9785 27.2214 34.9935 27.051 35.0055 26.8806C34.413 26.9088 33.8205 26.937 33.228 26.9742ZM31.3995 27.7314C31.4025 27.757 31.4085 27.7839 31.4115 27.8083C31.4115 27.8108 31.413 27.8134 31.4145 27.8159C31.41 27.7877 31.404 27.7596 31.3995 27.7314ZM22.2435 13.7171C22.5675 13.8234 22.896 13.9118 23.235 13.9733C23.589 13.9951 23.9385 13.981 24.2925 13.9579C24.9825 13.8644 25.6605 13.735 26.322 13.5377C26.688 13.3788 27.024 13.1841 27.3555 12.9778C27.6345 12.792 27.912 12.6024 28.1715 12.3987C28.4805 12.1565 28.758 11.9002 29.0205 11.6273C29.2695 11.3288 29.4825 11.02 29.667 10.692C29.8155 10.341 29.9265 9.98606 30.0015 9.61963C30.0345 9.28522 30.0345 8.95978 30.0075 8.62409C29.946 8.33197 29.8575 8.04753 29.739 7.76694C29.547 7.43125 29.3235 7.11863 29.067 6.81625C28.8 6.54719 28.515 6.30759 28.197 6.08209C27.5745 5.70156 26.922 5.38637 26.2275 5.11219C25.8645 4.99175 25.5 4.8995 25.1145 4.83928C24.606 4.80597 24.1065 4.8175 23.5965 4.86363C22.989 4.94563 22.413 5.07247 21.8385 5.26722C21.3195 5.46325 20.817 5.6785 20.349 5.95397C20.04 6.18203 19.7625 6.43316 19.503 6.70094C19.206 7.05841 18.951 7.43381 18.729 7.82844C18.618 8.08084 18.534 8.33453 18.4725 8.59975C18.4245 9.01487 18.426 9.42231 18.4755 9.84C18.546 10.1847 18.645 10.5178 18.7845 10.8471C18.969 11.1699 19.188 11.4685 19.4295 11.7606C19.887 12.2295 20.3895 12.6677 20.937 13.0611C21.3495 13.3122 21.783 13.5326 22.2435 13.7171ZM22.974 27.6981C22.974 27.6981 22.9725 27.7045 22.9725 27.7083C22.9815 27.6865 22.9905 27.666 22.9995 27.6443C22.992 27.6622 22.983 27.6801 22.974 27.6981ZM12.135 28.504C13.635 28.4399 15.135 28.3861 16.6335 28.3297C16.683 28.3284 16.731 28.3284 16.7805 28.3272C16.7625 27.9838 16.779 27.6404 16.788 27.3009C16.7895 27.2304 16.7925 27.1599 16.7955 27.0895C15.1575 27.0946 13.527 27.1843 11.8965 27.2906C11.9685 27.5635 12.039 27.8377 12.114 28.1106C12.1485 28.2426 12.1485 28.3746 12.135 28.504ZM37.9815 35.9698C37.9695 35.8007 37.9545 35.6316 37.944 35.4663C37.9155 34.9909 37.881 34.5156 37.851 34.0403C37.7955 33.1677 37.7925 32.2952 37.6965 31.4239C37.6155 31.0178 37.4865 30.6219 37.356 30.2221C37.0905 30.2003 36.825 30.1747 36.5595 30.1568C35.997 30.1171 35.4315 30.0927 34.866 30.085C33.669 30.0697 32.469 30.0927 31.269 30.1171C28.869 30.167 26.466 30.2208 24.0645 30.2631C22.809 30.2862 21.5505 30.29 20.298 30.2952C19.9815 30.2977 19.6665 30.2977 19.35 30.2977C18.4425 30.2977 17.538 30.2977 16.6305 30.3272C14.463 30.4002 12.2955 30.5117 10.1295 30.6513C10.152 31.0818 10.1775 31.5111 10.1925 31.9416C10.2105 32.5117 10.218 33.078 10.2585 33.6482C10.3215 34.5387 10.359 35.4304 10.407 36.3209C10.5765 36.3222 10.746 36.3222 10.9155 36.3234C11.6775 36.3311 12.441 36.3375 13.203 36.3209C14.3655 36.294 15.528 36.2619 16.6905 36.2286C19.0185 36.1671 21.3525 36.1646 23.6835 36.1671C24.933 36.1671 26.1855 36.1748 27.438 36.1697C28.638 36.1671 29.838 36.1197 31.035 36.0838C32.2875 36.0467 33.537 36.0339 34.7925 36.0288C35.859 36.0262 36.9195 36.0198 37.9815 35.9698Z" fill="#E16858"/>
</g>
</svg>
