<svg width="42" height="42" viewBox="0 0 42 42" fill="none" xmlns="http://www.w3.org/2000/svg">
<g id="like_svgrepo.com">
<path id="Vector" d="M5.25 17.9098L6.55762 17.7968C6.49707 17.0965 5.89563 16.5683 5.19342 16.5986C4.4912 16.6289 3.9375 17.207 3.9375 17.9098H5.25ZM35.4132 21.1004L34.1785 28.2399L36.7652 28.6874L37.9998 21.5477L35.4132 21.1004ZM23.1787 37.1875H15.0436V39.8125H23.1787V37.1875ZM13.4487 35.7219L12.0274 19.2846L9.4122 19.5107L10.8335 35.948L13.4487 35.7219ZM34.1785 28.2399C33.2916 33.3685 28.6673 37.1875 23.1787 37.1875V39.8125C29.8746 39.8125 35.6489 35.1417 36.7652 28.6874L34.1785 28.2399ZM23.1959 8.92525L22.0362 16.0033L24.6267 16.4277L25.7864 9.3497L23.1959 8.92525ZM12.5785 17.9298L15.0963 15.7602L13.3828 13.7717L10.865 15.9413L12.5785 17.9298ZM19.677 8.7011L20.5095 5.49186L17.9686 4.83274L17.1361 8.04198L19.677 8.7011ZM21.7668 4.86221L22.0206 4.94371L22.8235 2.44451L22.5697 2.36302L21.7668 4.86221ZM18.4161 11.928C18.9619 10.906 19.386 9.82342 19.677 8.7011L17.1361 8.04198C16.8975 8.96186 16.5497 9.85062 16.1007 10.6912L18.4161 11.928ZM22.0206 4.94371C22.5568 5.11598 22.9376 5.53015 23.0627 6.01271L25.6037 5.35361C25.2441 3.96757 24.1832 2.88133 22.8235 2.44451L22.0206 4.94371ZM20.5095 5.49186C20.5709 5.25559 20.7415 5.03847 20.9996 4.91406L19.86 2.5493C18.929 2.9979 18.2297 3.82596 17.9686 4.83274L20.5095 5.49186ZM20.9996 4.91406C21.2354 4.80043 21.5129 4.78066 21.7668 4.86221L22.5697 2.36302C21.6778 2.07645 20.7046 2.14234 19.86 2.5493L20.9996 4.91406ZM24.769 19.2223H33.8359V16.5973H24.769V19.2223ZM8.25792 37.4607L6.55762 17.7968L3.94238 18.0229L5.64268 37.6868L8.25792 37.4607ZM6.5625 37.6472V17.9098H3.9375V37.6472H6.5625ZM5.64268 37.6868C5.6196 37.4199 5.83005 37.1875 6.10174 37.1875V39.8125C7.37219 39.8125 8.36714 38.7238 8.25792 37.4607L5.64268 37.6868ZM25.7864 9.3497C26.0043 8.01947 25.9422 6.65836 25.6037 5.35361L23.0627 6.01271C23.3095 6.96364 23.3548 7.9557 23.1959 8.92525L25.7864 9.3497ZM15.0436 37.1875C14.2143 37.1875 13.5205 36.5522 13.4487 35.7219L10.8335 35.948C11.0224 38.1328 12.8497 39.8125 15.0436 39.8125V37.1875ZM15.0963 15.7602C16.2861 14.735 17.5686 13.5147 18.4161 11.928L16.1007 10.6912C15.4946 11.8259 14.5294 12.7836 13.3828 13.7717L15.0963 15.7602ZM37.9998 21.5477C38.4466 18.9639 36.4597 16.5973 33.8359 16.5973V19.2223C34.8274 19.2223 35.5831 20.1178 35.4132 21.1004L37.9998 21.5477ZM6.10174 37.1875C6.35761 37.1875 6.5625 37.3947 6.5625 37.6472H3.9375C3.9375 38.8418 4.90506 39.8125 6.10174 39.8125V37.1875ZM22.0362 16.0033C21.7602 17.6883 23.059 19.2223 24.769 19.2223V16.5973C24.6816 16.5973 24.6118 16.5183 24.6267 16.4277L22.0362 16.0033ZM12.0274 19.2846C11.9829 18.7701 12.1883 18.2661 12.5785 17.9298L10.865 15.9413C9.83538 16.8285 9.29511 18.1568 9.4122 19.5107L12.0274 19.2846Z" fill="#D9A92D"/>
</g>
</svg>
