<svg width="40" height="40" viewBox="0 0 40 40" fill="none" xmlns="http://www.w3.org/2000/svg">
<g id="profit-increase-chart_svgrepo.com">
<g id="25 profit">
<g id="Vector">
<mask id="path-1-inside-1_1547_17300" fill="white">
<path d="M36.5688 36.5625H33.7188V17.6188H35.4625C35.5802 17.6194 35.6957 17.5868 35.7957 17.5247C35.8957 17.4626 35.9761 17.3735 36.0277 17.2677C36.0793 17.1619 36.0999 17.0437 36.0873 16.9267C36.0747 16.8097 36.0293 16.6986 35.9563 16.6063L32.0125 11.5563C31.9511 11.4857 31.8752 11.429 31.7901 11.3902C31.7049 11.3514 31.6124 11.3313 31.5188 11.3313C31.4252 11.3313 31.3327 11.3514 31.2475 11.3902C31.1623 11.429 31.0865 11.4857 31.025 11.5563L27.0813 16.6063C27.0083 16.6986 26.9629 16.8097 26.9503 16.9267C26.9376 17.0437 26.9583 17.1619 27.0099 17.2677C27.0615 17.3735 27.1419 17.4626 27.2419 17.5247C27.3418 17.5868 27.4573 17.6194 27.575 17.6188H29.3125V36.5625H22.9938V23.3H24.7313C24.8492 23.3002 24.9647 23.2668 25.0643 23.2037C25.164 23.1406 25.2435 23.0505 25.2938 22.9438C25.3462 22.8393 25.3676 22.7219 25.3554 22.6056C25.3433 22.4893 25.298 22.3789 25.225 22.2875L21.2813 17.2375C21.2198 17.1669 21.144 17.1103 21.0588 17.0715C20.9736 17.0327 20.8811 17.0126 20.7875 17.0126C20.6939 17.0126 20.6014 17.0327 20.5162 17.0715C20.4311 17.1103 20.3552 17.1669 20.2938 17.2375L16.35 22.2875C16.2786 22.3803 16.2344 22.4911 16.2226 22.6076C16.2107 22.7241 16.2316 22.8416 16.2829 22.9469C16.3343 23.0521 16.414 23.141 16.513 23.2033C16.6121 23.2657 16.7267 23.2992 16.8438 23.3H18.5875V36.5625H12.8938V28.975H14.6375C14.7548 28.9757 14.8698 28.9432 14.9693 28.8813C15.0689 28.8193 15.1488 28.7305 15.2 28.625C15.2495 28.5198 15.2692 28.403 15.2571 28.2873C15.2449 28.1717 15.2014 28.0615 15.1313 27.9688L11.1813 22.9188C11.1213 22.8469 11.0463 22.789 10.9615 22.7493C10.8767 22.7096 10.7843 22.689 10.6906 22.689C10.597 22.689 10.5046 22.7096 10.4198 22.7493C10.335 22.789 10.26 22.8469 10.2 22.9188L6.25627 27.9688C6.1833 28.0602 6.13804 28.1705 6.12586 28.2868C6.11367 28.4031 6.13507 28.5205 6.18752 28.625C6.23672 28.7307 6.31538 28.82 6.41405 28.882C6.51271 28.9441 6.62721 28.9764 6.74377 28.975H8.48752V36.5625H4.05627V4.36877C4.05627 4.20301 3.99043 4.04404 3.87322 3.92683C3.75601 3.80962 3.59703 3.74377 3.43127 3.74377C3.26551 3.74377 3.10654 3.80962 2.98933 3.92683C2.87212 4.04404 2.80627 4.20301 2.80627 4.36877V37.1875C2.80627 37.3533 2.87212 37.5123 2.98933 37.6295C3.10654 37.7467 3.26551 37.8125 3.43127 37.8125H36.5688C36.7345 37.8125 36.8935 37.7467 37.0107 37.6295C37.1279 37.5123 37.1938 37.3533 37.1938 37.1875C37.1938 37.0218 37.1279 36.8628 37.0107 36.7456C36.8935 36.6284 36.7345 36.5625 36.5688 36.5625ZM11.6438 28.35V36.5625H9.73752V28.35C9.73752 28.1843 9.67168 28.0253 9.55447 27.9081C9.43726 27.7909 9.27829 27.725 9.11252 27.725H8.03127L10.6938 24.3188L13.3563 27.725H12.2688C12.103 27.725 11.944 27.7909 11.8268 27.9081C11.7096 28.0253 11.6438 28.1843 11.6438 28.35ZM21.7438 22.675V36.5625H19.8375V22.675C19.8375 22.5093 19.7717 22.3503 19.6545 22.2331C19.5373 22.1159 19.3783 22.05 19.2125 22.05H18.125L20.7875 18.6375L23.45 22.05H22.3688C22.2865 22.0492 22.2048 22.0648 22.1286 22.0959C22.0524 22.127 21.9832 22.173 21.925 22.2312C21.8668 22.2894 21.8208 22.3587 21.7896 22.4349C21.7585 22.5111 21.7429 22.5927 21.7438 22.675ZM32.4688 16.9938V36.5625H30.5625V16.9938C30.5634 16.9115 30.5478 16.8298 30.5167 16.7536C30.4855 16.6774 30.4395 16.6082 30.3813 16.55C30.3231 16.4918 30.2539 16.4458 30.1777 16.4146C30.1015 16.3835 30.0198 16.3679 29.9375 16.3688H28.8563L31.5188 12.9563L34.1813 16.3688H33.0938C32.928 16.3688 32.769 16.4346 32.6518 16.5518C32.5346 16.669 32.4688 16.828 32.4688 16.9938Z"/>
</mask>
<path d="M36.5688 36.5625H33.7188V17.6188H35.4625C35.5802 17.6194 35.6957 17.5868 35.7957 17.5247C35.8957 17.4626 35.9761 17.3735 36.0277 17.2677C36.0793 17.1619 36.0999 17.0437 36.0873 16.9267C36.0747 16.8097 36.0293 16.6986 35.9563 16.6063L32.0125 11.5563C31.9511 11.4857 31.8752 11.429 31.7901 11.3902C31.7049 11.3514 31.6124 11.3313 31.5188 11.3313C31.4252 11.3313 31.3327 11.3514 31.2475 11.3902C31.1623 11.429 31.0865 11.4857 31.025 11.5563L27.0813 16.6063C27.0083 16.6986 26.9629 16.8097 26.9503 16.9267C26.9376 17.0437 26.9583 17.1619 27.0099 17.2677C27.0615 17.3735 27.1419 17.4626 27.2419 17.5247C27.3418 17.5868 27.4573 17.6194 27.575 17.6188H29.3125V36.5625H22.9938V23.3H24.7313C24.8492 23.3002 24.9647 23.2668 25.0643 23.2037C25.164 23.1406 25.2435 23.0505 25.2938 22.9438C25.3462 22.8393 25.3676 22.7219 25.3554 22.6056C25.3433 22.4893 25.298 22.3789 25.225 22.2875L21.2813 17.2375C21.2198 17.1669 21.144 17.1103 21.0588 17.0715C20.9736 17.0327 20.8811 17.0126 20.7875 17.0126C20.6939 17.0126 20.6014 17.0327 20.5162 17.0715C20.4311 17.1103 20.3552 17.1669 20.2938 17.2375L16.35 22.2875C16.2786 22.3803 16.2344 22.4911 16.2226 22.6076C16.2107 22.7241 16.2316 22.8416 16.2829 22.9469C16.3343 23.0521 16.414 23.141 16.513 23.2033C16.6121 23.2657 16.7267 23.2992 16.8438 23.3H18.5875V36.5625H12.8938V28.975H14.6375C14.7548 28.9757 14.8698 28.9432 14.9693 28.8813C15.0689 28.8193 15.1488 28.7305 15.2 28.625C15.2495 28.5198 15.2692 28.403 15.2571 28.2873C15.2449 28.1717 15.2014 28.0615 15.1313 27.9688L11.1813 22.9188C11.1213 22.8469 11.0463 22.789 10.9615 22.7493C10.8767 22.7096 10.7843 22.689 10.6906 22.689C10.597 22.689 10.5046 22.7096 10.4198 22.7493C10.335 22.789 10.26 22.8469 10.2 22.9188L6.25627 27.9688C6.1833 28.0602 6.13804 28.1705 6.12586 28.2868C6.11367 28.4031 6.13507 28.5205 6.18752 28.625C6.23672 28.7307 6.31538 28.82 6.41405 28.882C6.51271 28.9441 6.62721 28.9764 6.74377 28.975H8.48752V36.5625H4.05627V4.36877C4.05627 4.20301 3.99043 4.04404 3.87322 3.92683C3.75601 3.80962 3.59703 3.74377 3.43127 3.74377C3.26551 3.74377 3.10654 3.80962 2.98933 3.92683C2.87212 4.04404 2.80627 4.20301 2.80627 4.36877V37.1875C2.80627 37.3533 2.87212 37.5123 2.98933 37.6295C3.10654 37.7467 3.26551 37.8125 3.43127 37.8125H36.5688C36.7345 37.8125 36.8935 37.7467 37.0107 37.6295C37.1279 37.5123 37.1938 37.3533 37.1938 37.1875C37.1938 37.0218 37.1279 36.8628 37.0107 36.7456C36.8935 36.6284 36.7345 36.5625 36.5688 36.5625ZM11.6438 28.35V36.5625H9.73752V28.35C9.73752 28.1843 9.67168 28.0253 9.55447 27.9081C9.43726 27.7909 9.27829 27.725 9.11252 27.725H8.03127L10.6938 24.3188L13.3563 27.725H12.2688C12.103 27.725 11.944 27.7909 11.8268 27.9081C11.7096 28.0253 11.6438 28.1843 11.6438 28.35ZM21.7438 22.675V36.5625H19.8375V22.675C19.8375 22.5093 19.7717 22.3503 19.6545 22.2331C19.5373 22.1159 19.3783 22.05 19.2125 22.05H18.125L20.7875 18.6375L23.45 22.05H22.3688C22.2865 22.0492 22.2048 22.0648 22.1286 22.0959C22.0524 22.127 21.9832 22.173 21.925 22.2312C21.8668 22.2894 21.8208 22.3587 21.7896 22.4349C21.7585 22.5111 21.7429 22.5927 21.7438 22.675ZM32.4688 16.9938V36.5625H30.5625V16.9938C30.5634 16.9115 30.5478 16.8298 30.5167 16.7536C30.4855 16.6774 30.4395 16.6082 30.3813 16.55C30.3231 16.4918 30.2539 16.4458 30.1777 16.4146C30.1015 16.3835 30.0198 16.3679 29.9375 16.3688H28.8563L31.5188 12.9563L34.1813 16.3688H33.0938C32.928 16.3688 32.769 16.4346 32.6518 16.5518C32.5346 16.669 32.4688 16.828 32.4688 16.9938Z" fill="#419788" stroke="#419788" stroke-width="2" mask="url(#path-1-inside-1_1547_17300)"/>
</g>
<path id="Vector_2" d="M10.35 16.275C10.2438 16.2063 10.1375 16.1438 10.0375 16.0875C9.89249 16.0071 9.78533 15.8724 9.73962 15.713C9.69391 15.5536 9.71339 15.3826 9.79378 15.2375C9.87418 15.0925 10.0089 14.9853 10.1683 14.9396C10.3277 14.8939 10.4987 14.9134 10.6438 14.9938L11.2438 16.7375C10.9316 16.6126 10.6323 16.4577 10.35 16.275ZM10.35 16.275L10.6217 15.8552C10.5041 15.7792 10.3884 15.7112 10.2827 15.6517L10.2827 15.6517L10.2799 15.6502C10.2509 15.6341 10.2294 15.6071 10.2202 15.5752L9.74311 15.712L10.2202 15.5752C10.2111 15.5432 10.215 15.509 10.2311 15.4799C10.2472 15.4509 10.2742 15.4294 10.3061 15.4202C10.3381 15.4111 10.3723 15.415 10.4014 15.4311L10.4028 15.4319C10.4834 15.4762 10.5571 15.521 10.642 15.5727C10.6698 15.5896 10.6987 15.6072 10.7295 15.6257M10.35 16.275L10.6217 15.8552C10.8768 16.0204 11.1474 16.1604 11.4296 16.2733L11.7438 16.3991V16.7375V17.2438C11.7438 17.2769 11.757 17.3087 11.7804 17.3322C11.8038 17.3556 11.8356 17.3688 11.8688 17.3688C11.9019 17.3688 11.9337 17.3556 11.9572 17.3322C11.9806 17.3087 11.9938 17.2769 11.9938 17.2438V16.8438V16.4361L12.3931 16.354C12.6284 16.3056 12.8461 16.194 13.0226 16.031C13.1985 15.8686 13.3269 15.6615 13.3942 15.4318M10.7295 15.6257L13.3935 15.4342C13.3937 15.4334 13.3939 15.4326 13.3942 15.4318M10.7295 15.6257C11.1038 15.9125 11.5489 16.0926 12.0177 16.1467L12.043 16.1496L12.0684 16.15C12.3002 16.153 12.5273 16.0844 12.7186 15.9536C12.9099 15.8227 13.0561 15.6359 13.1372 15.4187L13.1423 15.4049L13.1467 15.3908C13.1778 15.2895 13.2065 15.1262 13.1466 14.939C13.0857 14.7488 12.9548 14.6002 12.7902 14.4905C12.7901 14.4904 12.79 14.4903 12.7899 14.4903L11.1469 13.3907L11.147 13.3906L11.1361 13.3837C11.006 13.3014 10.8948 13.1924 10.8099 13.0639C10.7252 12.9358 10.6685 12.7911 10.6437 12.6395C10.622 12.5015 10.6299 12.3604 10.667 12.2257C10.7042 12.0906 10.7697 11.965 10.8594 11.8574L10.8594 11.8574L10.8633 11.8525C11.0088 11.6733 11.1999 11.5365 11.4166 11.4567L11.7438 11.3362V10.9875V10.4313C11.7438 10.3981 11.757 10.3663 11.7804 10.3429C11.8038 10.3194 11.8356 10.3063 11.8688 10.3063C11.9019 10.3063 11.9337 10.3194 11.9572 10.3429C11.9806 10.3663 11.9938 10.3981 11.9938 10.4313V10.9188V11.3162L12.381 11.4059C12.5311 11.4406 12.6734 11.5027 12.801 11.5891L12.801 11.5891L12.8058 11.5923L13.467 12.0289C13.4671 12.029 13.4673 12.0291 13.4674 12.0292C13.4952 12.0478 13.5145 12.0766 13.5211 12.1094C13.5277 12.1423 13.521 12.1765 13.5024 12.2045C13.4838 12.2325 13.4548 12.2519 13.4219 12.2585C13.3892 12.2651 13.3551 12.2585 13.3273 12.2402C13.3271 12.2401 13.327 12.24 13.3268 12.2399L12.6658 11.7971L12.6658 11.797L12.6588 11.7925C12.4186 11.6374 12.1324 11.5693 11.8481 11.5996L11.9011 12.0968L11.8481 11.5996C11.5637 11.6299 11.2984 11.7569 11.0963 11.9592L11.0849 11.9706L11.0742 11.9827C11.0039 12.0628 10.9508 12.1564 10.918 12.2578C10.8852 12.3591 10.8735 12.4661 10.8835 12.5722L10.8875 12.6145L10.8986 12.6556C10.9582 12.8759 11.0981 13.0659 11.2905 13.1884M10.7295 15.6257L11.2905 13.1884M13.3942 15.4318C13.4528 15.2199 13.4413 14.9947 13.3615 14.7898C13.2813 14.5841 13.1366 14.41 12.949 14.2937L12.942 14.2894L12.9352 14.2848L11.2905 13.1884M13.3942 15.4318L11.2905 13.1884" fill="#419788" stroke="#419788"/>
<path id="Vector_3" d="M11.8688 19.0563L11.8696 19.0563C13.2528 19.0539 14.5786 18.5034 15.5566 17.5254C16.5346 16.5473 17.0852 15.2215 17.0875 13.8384V13.8375C17.0875 12.8054 16.7815 11.7964 16.208 10.9381L15.7923 11.2159L16.208 10.9381C15.6346 10.0799 14.8195 9.41102 13.8659 9.01603C12.9123 8.62103 11.863 8.51768 10.8506 8.71905C9.83831 8.92042 8.90842 9.41746 8.17856 10.1473C7.44871 10.8772 6.95167 11.8071 6.7503 12.8194C6.54894 13.8317 6.65229 14.8811 7.04728 15.8347C7.44228 16.7883 8.11118 17.6033 8.96939 18.1768C9.82761 18.7502 10.8366 19.0563 11.8688 19.0563ZM8.8305 9.29042C9.72975 8.68957 10.787 8.36884 11.8685 8.36877L11.8688 8.36877C13.3189 8.36977 14.7093 8.94625 15.7347 9.97163C16.7601 10.9971 17.3366 12.3876 17.3375 13.8378C17.3375 14.9193 17.0167 15.9766 16.4159 16.8758C15.815 17.7751 14.9609 18.4761 13.9616 18.89C12.9623 19.3039 11.8627 19.4122 10.8019 19.2012C9.74104 18.9902 8.76661 18.4693 8.00179 17.7045C7.23697 16.9397 6.71612 15.9653 6.50511 14.9044C6.29409 13.8436 6.40239 12.744 6.81631 11.7447C7.23023 10.7454 7.93117 9.89134 8.8305 9.29042Z" fill="#419788" stroke="#419788"/>
<path id="Vector_4" d="M23.2369 10.1663L23.2482 10.1737C23.5021 10.3393 23.7716 10.4798 24.0527 10.5932L24.3657 10.7194V11.0569V11.5569C24.3657 11.59 24.3788 11.6218 24.4023 11.6453C24.4257 11.6687 24.4575 11.6819 24.4907 11.6819C24.5238 11.6819 24.5556 11.6687 24.5791 11.6453C24.6025 11.6218 24.6157 11.59 24.6157 11.5569V11.1606V10.7533L25.0146 10.671C25.2501 10.6223 25.468 10.5108 25.6452 10.3481C25.8211 10.1868 25.9502 9.98108 26.0192 9.7527C26.0762 9.54033 26.0636 9.31524 25.9832 9.11048C25.9022 8.90402 25.7566 8.72927 25.5682 8.61229L25.5609 8.60778L25.5538 8.60302L23.9162 7.5069C23.8189 7.44753 23.7342 7.36972 23.6667 7.27778C23.5954 7.18067 23.545 7.06988 23.5185 6.95237L23.5129 6.92748L23.5099 6.90215C23.4969 6.79392 23.507 6.68416 23.5396 6.58013L24.0167 6.72975L23.5396 6.58013C23.5722 6.47612 23.6266 6.38022 23.6991 6.29879L23.7085 6.28819L23.7185 6.27814C23.9205 6.07567 24.1858 5.94857 24.4701 5.91805C24.7545 5.88753 25.0407 5.95543 25.281 6.11044L25.2883 6.11509L25.2882 6.11515L25.9463 6.55577L25.9534 6.56053L25.9534 6.56059C25.967 6.57006 25.9824 6.57672 25.9987 6.58018C26.0149 6.58364 26.0316 6.58383 26.048 6.58074C26.0643 6.57766 26.0798 6.57135 26.0936 6.5622C26.1075 6.55305 26.1194 6.54123 26.1286 6.52744L23.2369 10.1663ZM23.2369 10.1663L23.2253 10.1596M23.2369 10.1663L23.2253 10.1596M23.2253 10.1596C23.2004 10.1453 23.161 10.1215 23.1165 10.0947C23.0509 10.0552 22.9744 10.0092 22.9182 9.97724L22.9071 9.97082C22.8786 9.9544 22.8578 9.92744 22.8491 9.89578C22.8404 9.86413 22.8445 9.83031 22.8605 9.80165C22.8765 9.77298 22.9031 9.75176 22.9346 9.74258C22.965 9.73373 22.9976 9.73674 23.0257 9.7509C23.1264 9.8084 23.2352 9.87446 23.3478 9.94465C23.7228 10.2316 24.1684 10.4124 24.6377 10.4678L24.6641 10.4709L24.6907 10.4712C24.9222 10.4738 25.149 10.4052 25.3403 10.2747L25.0585 9.86167L25.3403 10.2747C25.5316 10.1441 25.6781 9.958 25.7601 9.74143L25.7698 9.71603L25.7766 9.68974C25.7985 9.60515 25.8291 9.44432 25.7688 9.25696C25.7071 9.06544 25.5749 8.91949 25.4135 8.81178C25.4133 8.81168 25.4132 8.81158 25.413 8.81147L23.7669 7.70951L23.767 7.70941L23.758 7.70367C23.6279 7.62049 23.5166 7.51095 23.4313 7.38212C23.3468 7.25442 23.2898 7.11058 23.2638 6.95971C23.2433 6.8214 23.2518 6.68034 23.2887 6.54544C23.3259 6.40957 23.391 6.28296 23.4799 6.17374C23.6264 5.99606 23.8179 5.861 24.0344 5.78271L24.3644 5.6634V5.3125V4.75C24.3644 4.71685 24.3776 4.68506 24.401 4.66161L24.0475 4.30806L24.401 4.66161C24.4245 4.63817 24.4563 4.625 24.4894 4.625C24.5226 4.625 24.5544 4.63817 24.5778 4.66161L24.9215 4.31797L24.5778 4.66161C24.6013 4.68505 24.6144 4.71685 24.6144 4.75V5.23938V5.63201L24.9959 5.72512C25.1502 5.76279 25.2971 5.82622 25.4303 5.91275L26.0864 6.34889L26.0863 6.34893M23.2253 10.1596L26.0863 6.34893M26.0863 6.34893L26.0924 6.35284M26.0863 6.34893L26.0924 6.35284M26.0924 6.35284C26.1064 6.36183 26.1184 6.3735 26.1278 6.38719C26.1372 6.40088 26.1437 6.4163 26.1471 6.43255M26.0924 6.35284L26.1471 6.43255M26.1471 6.43255C26.1505 6.4488 26.1506 6.46556 26.1474 6.48185L26.1471 6.43255ZM26.1474 6.48185C26.1442 6.49814 26.1378 6.51364 26.1286 6.52743L26.1474 6.48185Z" fill="#419788" stroke="#419788"/>
<path id="Vector_5" d="M24.4869 13.375H24.4877C25.8721 13.3745 27.1996 12.8248 28.1792 11.8465C29.1587 10.8683 29.7101 9.54145 29.7125 8.15711V8.15625C29.7125 7.12437 29.4066 6.11566 28.8335 5.25759C28.2603 4.39952 27.4457 3.73062 26.4925 3.33542C25.5393 2.94022 24.4903 2.83647 23.4782 3.03728C22.466 3.23808 21.5361 3.73444 20.806 4.4636C20.0759 5.19276 19.5783 6.12201 19.3761 7.13389C19.174 8.14577 19.2764 9.19487 19.6703 10.1486C20.0642 11.1023 20.7321 11.9178 21.5894 12.4921C22.4467 13.0664 23.455 13.3736 24.4869 13.375ZM21.4513 3.61193C22.3498 3.01039 23.4065 2.68869 24.4877 2.6875C25.9386 2.68788 27.3301 3.26403 28.3565 4.28943C29.3831 5.31491 29.9607 6.70588 29.9625 8.15688C29.9624 9.23803 29.6418 10.2949 29.0413 11.1939C28.4406 12.0931 27.5868 12.7941 26.5879 13.2082C25.5889 13.6223 24.4897 13.7309 23.429 13.5203C22.3683 13.3098 21.3939 12.7895 20.6288 12.0253C19.8638 11.261 19.3425 10.2871 19.1308 9.22666C18.9191 8.1662 19.0266 7.0668 19.4397 6.06741C19.8527 5.06803 20.5528 4.21353 21.4513 3.61193Z" fill="#419788" stroke="#419788"/>
</g>
</g>
</svg>
