<svg width="44" height="38" viewBox="0 0 44 38" fill="none" xmlns="http://www.w3.org/2000/svg">
<g id="&#240;&#159;&#166;&#134; icon &#34;Hand Holding US Dollar&#34;">
<path id="Vector" d="M20.7349 10.7098L24.7863 11.7711C24.9239 11.8031 25.047 11.8794 25.1365 11.9881C25.226 12.0968 25.2769 12.2318 25.2812 12.3723C25.2812 12.7137 24.9759 12.9957 24.6004 12.9957H21.9428C21.6564 12.9949 21.3728 12.9395 21.1075 12.8324C20.7163 12.6691 20.2654 12.7062 19.9653 12.9809L18.5469 14.2797C18.4813 14.3368 18.4247 14.4033 18.379 14.4771C18.3204 14.5726 18.2814 14.6787 18.2643 14.7892C18.2472 14.8998 18.2522 15.0126 18.2791 15.1212C18.306 15.2298 18.3543 15.332 18.4212 15.4219C18.488 15.5119 18.5721 15.5878 18.6686 15.6453C19.4541 16.114 20.3336 16.4054 21.2448 16.4988V17.8125C21.2448 18.4656 21.8293 19 22.5415 19H23.8382C24.5511 19 25.1356 18.4656 25.1356 17.8125V16.5063C27.5939 16.2391 29.4535 14.2055 29.1295 11.8305C28.8943 10.1234 27.4528 8.76523 25.6537 8.29023L21.6024 7.22891C21.4648 7.19692 21.3417 7.12064 21.2522 7.01193C21.1627 6.90321 21.1118 6.76815 21.1075 6.62773C21.1075 6.28633 21.4128 6.0043 21.7883 6.0043H24.4459C24.7332 6.00474 25.0179 6.06018 25.2842 6.16758C25.6746 6.33086 26.1263 6.29375 26.4263 6.01914L27.8447 4.72031C27.9082 4.66444 27.9628 4.59939 28.0067 4.52734C28.0658 4.43188 28.1052 4.32572 28.1228 4.21502C28.1403 4.10431 28.1356 3.99124 28.109 3.88234C28.0823 3.77344 28.0342 3.67087 27.9675 3.58056C27.9007 3.49025 27.8166 3.41398 27.7201 3.35617C26.9343 2.88751 26.0546 2.59614 25.1431 2.50266V1.1875C25.1431 0.534375 24.5593 0 23.8464 0H22.5497C21.8368 0 21.253 0.534375 21.253 1.1875V2.49375C18.7977 2.76094 16.9345 4.79453 17.2584 7.16953C17.4928 8.87656 18.9388 10.2348 20.7349 10.7098ZM42.6981 24.3512C41.8172 23.557 40.4436 23.609 39.5179 24.3512L32.6202 29.8359C31.7734 30.5113 30.7196 30.878 29.6341 30.875H20.8051C20.4883 30.875 20.1845 30.7499 19.9605 30.5272C19.7365 30.3045 19.6107 30.0024 19.6107 29.6875C19.6107 29.3726 19.7365 29.0705 19.9605 28.8478C20.1845 28.6251 20.4883 28.5 20.8051 28.5H26.6496C27.8365 28.5 28.9421 27.691 29.1317 26.5258C29.1551 26.392 29.1666 26.2564 29.166 26.1205C29.1649 25.4914 28.9127 24.8885 28.4648 24.444C28.0169 23.9996 27.41 23.75 26.7772 23.75H14.833C12.8186 23.7505 10.8657 24.4394 9.30137 25.7012L5.83009 28.5H1.69442C1.37764 28.5 1.07383 28.6251 0.849837 28.8478C0.62584 29.0705 0.5 29.3726 0.5 29.6875L0.5 36.8125C0.5 37.1274 0.62584 37.4295 0.849837 37.6522C1.07383 37.8749 1.37764 38 1.69442 38H28.3277C29.4129 38.0008 30.466 37.6344 31.3138 36.9609L42.6033 27.9805C42.8748 27.7645 43.0957 27.4922 43.2505 27.1826C43.4052 26.873 43.4901 26.5335 43.4992 26.1879C43.5083 25.8423 43.4414 25.4988 43.3031 25.1816C43.1649 24.8644 42.9586 24.581 42.6988 24.3512H42.6981Z" fill="#E16858"/>
</g>
</svg>
